<svg xmlns="http://www.w3.org/2000/svg" viewBox="-260 -100 520 200" shape-rendering="crispEdges">
  <g fill="currentColor" transform="translate(-260, -100)">
    <rect x="20" y="20" width="20" height="20"/><rect x="40" y="20" width="20" height="20"/><rect x="60" y="20" width="20" height="20"/><rect x="80" y="20" width="20" height="20"/><rect x="160" y="20" width="20" height="20"/><rect x="180" y="20" width="20" height="20"/><rect x="220" y="20" width="20" height="20"/><rect x="240" y="20" width="20" height="20"/><rect x="260" y="20" width="20" height="20"/><rect x="280" y="20" width="20" height="20"/><rect x="320" y="20" width="20" height="20"/><rect x="340" y="20" width="20" height="20"/><rect x="360" y="20" width="20" height="20"/><rect x="380" y="20" width="20" height="20"/><rect x="420" y="20" width="20" height="20"/><rect x="440" y="20" width="20" height="20"/><rect x="460" y="20" width="20" height="20"/><rect x="480" y="20" width="20" height="20"/><rect x="20" y="40" width="20" height="20"/><rect x="60" y="40" width="20" height="20"/><rect x="80" y="40" width="20" height="20"/><rect x="160" y="40" width="20" height="20"/><rect x="180" y="40" width="20" height="20"/><rect x="280" y="40" width="20" height="20"/><rect x="420" y="40" width="20" height="20"/><rect x="440" y="40" width="20" height="20"/><rect x="480" y="40" width="20" height="20"/><rect x="20" y="60" width="20" height="20"/><rect x="40" y="60" width="20" height="20"/><rect x="80" y="60" width="20" height="20"/><rect x="140" y="60" width="20" height="20"/><rect x="160" y="60" width="20" height="20"/><rect x="180" y="60" width="20" height="20"/><rect x="260" y="60" width="20" height="20"/><rect x="420" y="60" width="20" height="20"/><rect x="460" y="60" width="20" height="20"/><rect x="480" y="60" width="20" height="20"/><rect x="20" y="80" width="20" height="20"/><rect x="40" y="80" width="20" height="20"/><rect x="60" y="80" width="20" height="20"/><rect x="80" y="80" width="20" height="20"/><rect x="140" y="80" width="20" height="20"/><rect x="180" y="80" width="20" height="20"/><rect x="240" y="80" width="20" height="20"/><rect x="280" y="80" width="20" height="20"/><rect x="320" y="80" width="20" height="20"/><rect x="340" y="80" width="20" height="20"/><rect x="360" y="80" width="20" height="20"/><rect x="380" y="80" width="20" height="20"/><rect x="420" y="80" width="20" height="20"/><rect x="440" y="80" width="20" height="20"/><rect x="460" y="80" width="20" height="20"/><rect x="480" y="80" width="20" height="20"/><rect x="80" y="100" width="20" height="20"/><rect x="120" y="100" width="20" height="20"/><rect x="140" y="100" width="20" height="20"/><rect x="180" y="100" width="20" height="20"/><rect x="220" y="100" width="20" height="20"/><rect x="260" y="100" width="20" height="20"/><rect x="320" y="100" width="20" height="20"/><rect x="340" y="100" width="20" height="20"/><rect x="360" y="100" width="20" height="20"/><rect x="380" y="100" width="20" height="20"/><rect x="420" y="100" width="20" height="20"/><rect x="440" y="100" width="20" height="20"/><rect x="80" y="120" width="20" height="20"/><rect x="120" y="120" width="20" height="20"/><rect x="180" y="120" width="20" height="20"/><rect x="240" y="120" width="20" height="20"/><rect x="420" y="120" width="20" height="20"/><rect x="460" y="120" width="20" height="20"/><rect x="80" y="140" width="20" height="20"/><rect x="120" y="140" width="20" height="20"/><rect x="180" y="140" width="20" height="20"/><rect x="220" y="140" width="20" height="20"/><rect x="420" y="140" width="20" height="20"/><rect x="480" y="140" width="20" height="20"/><rect x="80" y="160" width="20" height="20"/><rect x="120" y="160" width="20" height="20"/><rect x="140" y="160" width="20" height="20"/><rect x="160" y="160" width="20" height="20"/><rect x="180" y="160" width="20" height="20"/><rect x="220" y="160" width="20" height="20"/><rect x="240" y="160" width="20" height="20"/><rect x="260" y="160" width="20" height="20"/><rect x="280" y="160" width="20" height="20"/><rect x="320" y="160" width="20" height="20"/><rect x="340" y="160" width="20" height="20"/><rect x="360" y="160" width="20" height="20"/><rect x="380" y="160" width="20" height="20"/><rect x="420" y="160" width="20" height="20"/><rect x="480" y="160" width="20" height="20"/>
  </g>
</svg>